#N canvas 327 22 954 610 10;
#X obj -25 357 *~ 0;
#X obj 81 98 hsl 128 15 0 1 0 0 empty stutter empty -2 -8 0 10 -262144
-1 -1 7620 1;
#X obj 691 175 loadbang;
#X obj 500 210 bng 15 250 50 0 empty empty empty 17 7 0 10 -262144
-1 -1;
#X obj 553 405 line 0;
#X obj 612 397 line 0;
#X obj 665 397 line 0;
#X obj 667 217 bng 15 250 50 0 empty empty empty 17 7 0 10 -262144
-1 -1;
#X msg 478 311 1 0;
#X msg 524 312 0 10;
#X text 497 192 stutter on;
#X text 662 157 stutter off;
#X msg 437 346 \$1 10;
#X obj 667 273 t b b b b;
#X obj 722 399 line 0;
#X obj 617 448 pack f f f f;
#X obj 500 265 t b b b b;
#X msg 565 314 \$1 0;
#X obj 435 268 vsl 15 64 0 1 0 0 empty stutter-volume-control stutter_volume
0 -9 0 10 -262144 -1 -1 3780 1;
#X obj 584 229 vsl 15 64 0 1 0 0 empty input-gain-control input_gain
0 -9 0 10 -262144 -1 -1 0 1;
#X obj 438 374 print;
#X obj 232 66 env~;
#X obj 80 42 hsl 128 15 0 127 0 0 empty empty empty -2 -8 0 10 -262144
-1 -1 0 1;
#X obj 182 165 change;
#X obj 181 189 route 1 0;
#X msg 785 334 1 500;
#X msg 738 331 1 500;
#X msg 633 327 0 500;
#X msg 686 325 0 500;
#X obj 180 232 tgl 15 0 empty empty empty 17 7 0 10 -262144 -1 -1 0
1;
#X obj 181 213 bng 15 250 50 0 empty empty empty 17 7 0 10 -262144
-1 -1;
#X obj 13 312 delwrite~ delay_essai 1000;
#X obj 29 355 delread~ delay_essai \$1;
#X obj 223 312 delwrite~ delay_essai2 1000;
#X obj 236 354 delread~ delay_essai2 \$1;
#X obj 196 356 *~ 0;
#X obj 84 504 multiplex~;
#X obj 180 251 s delay_stream;
#X obj 84 482 r delay_stream;
#X obj 220 421 *~;
#X obj 235 398 r delay_stream;
#X floatatom 249 421 5 0 0 0 - - -;
#X obj 33 442 *~;
#X obj 48 420 expr 1 - $f1;
#X obj 48 399 r delay_stream;
#X obj 90 150 s dtime;
#X obj 29 332 r dtime;
#X obj 236 334 r dtime;
#X obj 80 79 hsl 128 15 0 1 0 0 empty stutter-feedback empty -2 -8
0 10 -262144 -1 -1 12700 1;
#X obj 80 61 hsl 128 15 0 127 0 0 empty empty empty -2 -8 0 10 -262144
-1 -1 0 1;
#X text 23 41 Input;
#X text 24 61 Thresh;
#X text 23 79 Feedback;
#X text 24 97 Volume;
#X obj 81 117 hsl 128 15 50 500 0 0 empty delay-time-control empty
-2 -8 0 10 -262144 -1 -1 4233 1;
#X text 25 116 Delay;
#X msg 617 473 \; stutter \$1 \; stutter-feedback \$2 \;;
#X obj 148 530 *~ 0;
#X obj 183 142 > 70;
#X obj 195 24 tgl 15 0 empty empty empty 17 7 0 10 -262144 -1 -1 1
1;
#X obj 477 121 moses 1;
#X obj 253 11 loadbang;
#X msg 253 30 1;
#X obj 11 148 inlet~;
#X obj 141 558 outlet~;
#X msg 691 201 \; input-gain-control 0 \; stutter-volume-control 0.6
\; delay-time-control 200 \;;
#X connect 0 0 31 0;
#X connect 1 0 57 1;
#X connect 2 0 13 0;
#X connect 2 0 65 0;
#X connect 3 0 16 0;
#X connect 4 0 15 0;
#X connect 5 0 15 1;
#X connect 6 0 15 2;
#X connect 7 0 13 0;
#X connect 8 0 5 0;
#X connect 9 0 6 0;
#X connect 12 0 4 0;
#X connect 12 0 20 0;
#X connect 13 0 27 0;
#X connect 13 1 28 0;
#X connect 13 2 26 0;
#X connect 13 3 25 0;
#X connect 14 0 15 3;
#X connect 15 0 56 0;
#X connect 16 0 18 0;
#X connect 16 1 8 0;
#X connect 16 2 9 0;
#X connect 16 3 19 0;
#X connect 17 0 14 0;
#X connect 18 0 12 0;
#X connect 19 0 17 0;
#X connect 21 0 22 0;
#X connect 22 0 58 0;
#X connect 23 0 24 0;
#X connect 24 0 30 0;
#X connect 25 0 14 0;
#X connect 26 0 6 0;
#X connect 27 0 4 0;
#X connect 28 0 5 0;
#X connect 29 0 37 0;
#X connect 30 0 29 0;
#X connect 32 0 36 0;
#X connect 32 0 42 0;
#X connect 34 0 36 1;
#X connect 34 0 39 0;
#X connect 35 0 33 0;
#X connect 36 0 57 0;
#X connect 38 0 36 0;
#X connect 39 0 35 0;
#X connect 40 0 39 1;
#X connect 40 0 41 0;
#X connect 42 0 0 0;
#X connect 43 0 42 1;
#X connect 44 0 43 0;
#X connect 46 0 32 0;
#X connect 47 0 34 0;
#X connect 48 0 0 1;
#X connect 48 0 35 1;
#X connect 49 0 58 1;
#X connect 54 0 45 0;
#X connect 57 0 64 0;
#X connect 58 0 23 0;
#X connect 59 0 60 0;
#X connect 60 0 7 0;
#X connect 60 1 3 0;
#X connect 61 0 62 0;
#X connect 62 0 59 0;
#X connect 63 0 21 0;
#X connect 63 0 33 0;
#X connect 63 0 31 0;
#X connect 63 0 64 0;
#X coords 0 -1 1 1 200 120 1 20 20;
