#N canvas 555 22 725 752 10;
#X floatatom 57 105 5 0 0 0 - - -;
#X obj 83 225 >;
#X obj 83 269 sel 1;
#X obj 83 248 change;
#X obj 89 373 line~;
#X obj 23 404 *~;
#X obj 83 294 t b b;
#X obj 83 203 env~ 256 128;
#X obj 23 155 delwrite~ violin 10;
#X obj 23 179 delread~ violin 10;
#X obj 125 20 loadbang;
#X msg 125 43 43;
#X msg 148 342 0 5;
#X obj 53 323 del 6;
#X obj 53 343 pack 1 200;
#X floatatom 95 105 5 0 0 0 - - -;
#X msg 158 43 300;
#X text 169 203 <-- Measures the amplitude of;
#X text 192 217 the input \, and send a bang;
#X text 191 232 if it is greater than the;
#X text 185 346 <-- Turn the volume all the way down;
#X text 191 246 sensitivity threshold;
#X text 189 261 (attack detected).;
#X text 184 361 when an attack is detected \, and than ramp;
#X text 184 376 slowly up again.;
#X text 144 152 <-- Buffer the input;
#X text 144 168 to give [env~] enough time;
#X text 145 185 to detect the attack.;
#X obj 23 130 inlet~;
#X obj 23 427 outlet~;
#X obj 35 48 hsl 80 15 0 100 0 0 empty empty empty -2 -8 0 10 -262144
-1 -1 0 1;
#X obj 35 82 hsl 80 15 0 600 0 0 empty empty empty -2 -8 0 10 -262144
-1 -1 0 1;
#X text 25 32 Sensitivity;
#X text 26 64 Attack;
#X text 108 406 GuitarExtended \, Pierre Massat \, 2012 GUI added by
Geoff;
#X connect 0 0 1 1;
#X connect 1 0 3 0;
#X connect 2 0 6 0;
#X connect 3 0 2 0;
#X connect 4 0 5 1;
#X connect 5 0 29 0;
#X connect 6 0 13 0;
#X connect 6 1 12 0;
#X connect 7 0 1 0;
#X connect 9 0 5 0;
#X connect 10 0 11 0;
#X connect 10 0 16 0;
#X connect 11 0 30 0;
#X connect 12 0 4 0;
#X connect 13 0 14 0;
#X connect 14 0 4 0;
#X connect 15 0 14 1;
#X connect 16 0 31 0;
#X connect 28 0 7 0;
#X connect 28 0 8 0;
#X connect 30 0 0 0;
#X connect 31 0 15 0;
#X coords 0 -1 1 1 100 80 1 20 20;
