#N canvas 525 100 450 300 10;
#X obj 24 204 freeverb~;
#X msg 245 93 roomsize \$1;
#X msg 245 115 damping \$1;
#X msg 245 137 width \$1;
#X msg 245 159 wet \$1;
#X msg 245 181 dry \$1;
#X msg 245 203 print;
#X msg 245 225 freeze \$1;
#X msg 245 247 bypass \$1;
#X text 306 180 - level of unprocessed signal \, between 0 and 1 (default:
0);
#X obj 59 47 hsl 100 15 0 1 0 0 empty empty empty -2 -8 0 10 -262144
-1 -1 4200 1;
#X text 24 47 Size;
#X obj 59 66 hsl 100 15 0 1 0 0 empty empty empty -2 -8 0 10 -262144
-1 -1 5300 1;
#X text 24 65 Damp;
#X obj 59 87 hsl 100 15 0 1 0 0 empty empty empty -2 -8 0 10 -262144
-1 -1 5400 1;
#X obj 59 107 hsl 100 15 0 1 0 0 empty empty empty -2 -8 0 10 -262144
-1 -1 5200 1;
#X text 24 87 Wet;
#X text 24 107 Dry;
#X obj 124 26 tgl 15 0 empty empty empty 17 7 0 10 -262144 -1 -1 0
1;
#X obj 146 26 tgl 15 0 empty empty empty 17 7 0 10 -262144 -1 -1 0
1;
#X obj 24 170 inlet~;
#X obj 25 237 outlet~;
#X connect 0 0 21 0;
#X connect 1 0 0 0;
#X connect 2 0 0 0;
#X connect 3 0 0 0;
#X connect 4 0 0 0;
#X connect 5 0 0 0;
#X connect 7 0 0 0;
#X connect 8 0 0 0;
#X connect 10 0 1 0;
#X connect 12 0 2 0;
#X connect 14 0 4 0;
#X connect 15 0 5 0;
#X connect 18 0 7 0;
#X connect 19 0 8 0;
#X connect 20 0 0 0;
#X coords 0 -1 1 1 150 110 1 20 20;
