#N canvas 359 300 258 318 10;
#X obj 1 18 cnv 15 55 115 empty empty empty 20 12 0 14 -241334 -66577
0;
#X floatatom 9 25 5 0 0 0 - - -;
#X obj 4 46 vu 20 80 empty empty -1 -8 0 8 -66577 -1 0 0;
#X obj 63 47 vsl 20 80 0 1 0 0 empty empty empty 0 -8 0 8 -191799 -1
-1 0 1;
#X obj -10 212 *~;
#X obj -14 241 env~ 10000;
#X obj -13 261 - 97;
#X obj -10 156 inlet~;
#X obj 30 46 vu 20 80 empty empty -1 -8 0 8 -66577 -1 0 0;
#X obj 77 210 *~;
#X obj 73 239 env~ 10000;
#X obj 74 259 - 97;
#X obj 77 154 inlet~;
#X obj 31 290 dac~;
#X connect 1 0 4 1;
#X connect 1 0 9 1;
#X connect 3 0 1 0;
#X connect 4 0 5 0;
#X connect 4 0 13 0;
#X connect 5 0 6 0;
#X connect 6 0 2 0;
#X connect 7 0 4 0;
#X connect 9 0 10 0;
#X connect 9 0 13 1;
#X connect 10 0 11 0;
#X connect 11 0 8 0;
#X connect 12 0 9 0;
#X coords 0 0 1 1 100 133 1 0 0;
